<svg xmlns="http://www.w3.org/2000/svg" viewBox="0 0 316.46 134.95"><g data-name="Слой 2"><path d="M42.66 43.13L29.42 84l-13-40.9L0 43.31v2.29a9.87 9.87 0 014.14 1.73 5.86 5.86 0 012 4.17v44.85h6.42V51L26.4 92.25h6.24L46.5 51v45.35h6.25V43.13zm172.67 24.8l24.74-24.59h-6.29l-24.26 24V43.13h-13v2.49c1.91.43 3.91 1 5.1 2.71s1.07 3.72 1.07 5.66v42.36h6.84V71.93l21.55 24.42h9.45zm30.07-24.8v2.08a10.28 10.28 0 014 1.7c1.76 1.4 2.2 3.47 2.2 5.6v43.84h6.75V43.13zm65.87.05v40.16L279 43.13h-11.27v2.08a10.28 10.28 0 014 1.7 6.41 6.41 0 012.19 5.1v44.34h5.32v-41l32.35 41h4.86V43.18zM127.12 0a67.48 67.48 0 1067.48 67.47A67.47 67.47 0 00127.12 0zM92.46 96.18h-6.62V69.47q-2.59-4.47-4.46-7.64t-3.21-5.49L76 52.69c-.55-.93-1-1.69-1.37-2.28s-.66-1-.88-1.35-.44-.65-.64-1a5.79 5.79 0 00-2-1.16A33.48 33.48 0 0067 45.78l-.24-.05v-2.6h12.6l11 19.17 11.6-19.17h6.78L92.46 69.68zM137 93.27c-11 3.77-25.42 2.65-31.63 12.49 0 0 2.1-18.36 19.94-21.55s20.39-3.78 26.38-11.07c-.01 0-2.55 15.97-14.69 20.13zm0-21.66c-11 3.78-25.42 2.66-31.63 12.49 0 0 2.1-18.36 19.94-21.55s20.39-3.78 26.38-11.07c-.01 0-2.55 15.98-14.69 20.13zM137 50c-11 3.77-25.42 2.65-31.63 12.48 0 0 2.1-18.36 19.94-21.54s20.39-3.79 26.38-11.08c-.01-.04-2.55 15.94-14.69 20.14zm48.73 38.59a11.16 11.16 0 01-3.19 4.09 17.43 17.43 0 01-4.44 2.57 23.39 23.39 0 01-5 1.36 32.54 32.54 0 01-5 .41 41.57 41.57 0 01-6.39-.49c-2-.33-4.06-.71-6-1.14h-.25v-6l.44.2a49.34 49.34 0 006.61 2.41 25.33 25.33 0 006.79.92 15.83 15.83 0 004.42-.58 8.19 8.19 0 006.06-8.8 8.67 8.67 0 00-.88-3.86 9.12 9.12 0 00-2.36-3 45.85 45.85 0 00-4.54-2.79l-4.63-2.44c-1.54-.81-3-1.68-4.44-2.57a22.2 22.2 0 01-3.93-3.12 13.25 13.25 0 01-4.09-9.62 11.5 11.5 0 014.59-9.78 13.94 13.94 0 013.54-2 20.78 20.78 0 014-1.12 27.37 27.37 0 014.3-.41h.87c1.16 0 2.33 0 3.46.13 1.4.12 2.8.28 4.14.5s2.61.45 3.75.7l.24.06v6l-.43-.18c-1.52-.62-3.15-1.23-4.85-1.8a28.72 28.72 0 00-5.03-1.24 16.51 16.51 0 00-2.42-.17 16.22 16.22 0 00-2.51.19 9.59 9.59 0 00-4.4 1.9 6.33 6.33 0 00-1.8 2.34 7.27 7.27 0 00-.59 2.93 7.12 7.12 0 00.85 3.59 14 14 0 002.25 2.86 35.19 35.19 0 004.47 2.8c1.56.82 3.12 1.63 4.7 2.42s3.1 1.64 4.57 2.52a25.91 25.91 0 014.15 3.1 14.25 14.25 0 012.81 3.79 15.1 15.1 0 011.43 4.35 14.4 14.4 0 01.06 4.54 13.85 13.85 0 01-1.34 4.39z" fill="#231f20" data-name="Layer 1"/></g></svg>