<svg xmlns="http://www.w3.org/2000/svg" viewBox="0 0 316.46 134.95"><defs><style>.cls-1{fill:#231f20;}</style></defs><title>Ресурс 1</title><g id="Слой_2" data-name="Слой 2"><g id="Layer_1" data-name="Layer 1"><path class="cls-1" d="M42.66,43.13,29.42,84l-13-40.9L0,43.31V45.6a9.87,9.87,0,0,1,4.14,1.73,5.86,5.86,0,0,1,2,4.17c0,.52,0,43.91,0,44.62v.23h6.42V51L26.4,92.25h6.24L46.5,51V96.35h6.25V43.13Z"/><path class="cls-1" d="M215.33,67.93l24.74-24.59h-6.29l-24.26,24V43.13h-13v2.49c1.91.43,3.91,1,5.1,2.71s1.07,3.72,1.07,5.66V96.35h6.84V71.93l21.55,24.42h9.45Z"/><path class="cls-1" d="M245.4,43.13v2.08a10.28,10.28,0,0,1,4,1.7c1.76,1.4,2.2,3.47,2.2,5.6V96.35h6.75V43.13Z"/><path class="cls-1" d="M311.27,43.18V83.34L279,43.13H267.73v2.08a10.28,10.28,0,0,1,4,1.7,6.41,6.41,0,0,1,2.19,5.1V96.35h5.32v-41l32.35,41h4.86V43.18Z"/><path class="cls-1" d="M127.12,0A67.48,67.48,0,1,0,194.6,67.47,67.47,67.47,0,0,0,127.12,0ZM92.46,96.18H85.84V69.47Q83.25,65,81.38,61.83t-3.21-5.49L76,52.69c-.55-.93-1-1.69-1.37-2.28s-.66-1-.88-1.35-.44-.65-.64-1a5.79,5.79,0,0,0-2-1.16A33.48,33.48,0,0,0,67,45.78l-.24-.05v-2.6H79.36l11,19.17,11.6-19.17h6.78L92.46,69.68ZM137,93.27c-11,3.77-25.42,2.65-31.63,12.49,0,0,2.1-18.36,19.94-21.55s20.39-3.78,26.38-11.07C151.68,73.14,149.14,89.11,137,93.27Zm0-21.66c-11,3.78-25.42,2.66-31.63,12.49,0,0,2.1-18.36,19.94-21.55s20.39-3.78,26.38-11.07C151.68,51.48,149.14,67.46,137,71.61ZM137,50c-11,3.77-25.42,2.65-31.63,12.48,0,0,2.1-18.36,19.94-21.54s20.39-3.79,26.38-11.08C151.68,29.82,149.14,45.8,137,50Zm48.73,38.59a11.16,11.16,0,0,1-3.19,4.09,17.43,17.43,0,0,1-4.44,2.57,23.39,23.39,0,0,1-5,1.36,32.54,32.54,0,0,1-5,.41,41.57,41.57,0,0,1-6.39-.49c-2-.33-4.06-.71-6-1.14l-.25,0v-6l.44.2a49.34,49.34,0,0,0,6.61,2.41,25.33,25.33,0,0,0,6.79.92,15.83,15.83,0,0,0,4.42-.58,8.19,8.19,0,0,0,6.06-8.8,8.67,8.67,0,0,0-.88-3.86,9.12,9.12,0,0,0-2.36-3A45.85,45.85,0,0,0,172,73.89l-4.63-2.44c-1.54-.81-3-1.68-4.44-2.57A22.2,22.2,0,0,1,159,65.76a13.25,13.25,0,0,1-4.09-9.62,11.5,11.5,0,0,1,4.59-9.78,13.94,13.94,0,0,1,3.54-2,20.78,20.78,0,0,1,4-1.12,27.37,27.37,0,0,1,4.3-.41h.87c1.16,0,2.33,0,3.46.13,1.4.12,2.8.28,4.14.5s2.61.45,3.75.7l.24.06v6l-.43-.18c-1.52-.62-3.15-1.23-4.85-1.8A28.72,28.72,0,0,0,173.49,47a16.51,16.51,0,0,0-2.42-.17,16.22,16.22,0,0,0-2.51.19,9.59,9.59,0,0,0-4.4,1.9,6.33,6.33,0,0,0-1.8,2.34,7.27,7.27,0,0,0-.59,2.93,7.12,7.12,0,0,0,.85,3.59,14,14,0,0,0,2.25,2.86,35.19,35.19,0,0,0,4.47,2.8c1.56.82,3.12,1.63,4.7,2.42s3.1,1.64,4.57,2.52a25.91,25.91,0,0,1,4.15,3.1,14.25,14.25,0,0,1,2.81,3.79A15.1,15.1,0,0,1,187,79.62a14.4,14.4,0,0,1,.06,4.54A13.85,13.85,0,0,1,185.72,88.55Z"/></g></g></svg>